<svg width="42" height="40" viewBox="0 0 42 40" fill="none" xmlns="http://www.w3.org/2000/svg">
<g clip-path="url(#clip0_362_2013)">
<path d="M13.6299 18.3333C13.6299 19.0994 13.7808 19.8579 14.0739 20.5657C14.3671 21.2734 14.7968 21.9164 15.3384 22.4581C15.8801 22.9998 16.5232 23.4295 17.2309 23.7226C17.9386 24.0158 18.6972 24.1667 19.4632 24.1667C20.2293 24.1667 20.9878 24.0158 21.6955 23.7226C22.4033 23.4295 23.0463 22.9998 23.588 22.4581C24.1297 21.9164 24.5594 21.2734 24.8525 20.5657C25.1457 19.8579 25.2966 19.0994 25.2966 18.3333C25.2966 17.5673 25.1457 16.8087 24.8525 16.101C24.5594 15.3933 24.1297 14.7502 23.588 14.2085C23.0463 13.6669 22.4033 13.2372 21.6955 12.944C20.9878 12.6509 20.2293 12.5 19.4632 12.5C18.6972 12.5 17.9386 12.6509 17.2309 12.944C16.5232 13.2372 15.8801 13.6669 15.3384 14.2085C14.7968 14.7502 14.3671 15.3933 14.0739 16.101C13.7808 16.8087 13.6299 17.5673 13.6299 18.3333Z" stroke="black" stroke-width="2" stroke-linecap="round" stroke-linejoin="round"/>
<path d="M28.6299 27.5L23.6299 22.5" stroke="black" stroke-width="2" stroke-linecap="round" stroke-linejoin="round"/>
</g>
<defs>
<clipPath id="clip0_362_2013">
<rect width="20" height="20" fill="white" transform="translate(11.1299 10)"/>
</clipPath>
</defs>
</svg>
